<svg width="30" height="30" viewBox="0 0 30 30" fill="none" xmlns="http://www.w3.org/2000/svg">
<rect width="30" height="30" rx="12" fill="white"/>
<path d="M25.5469 11.0863L20.5137 14.8383V23.0287H24.0369C24.8605 23.0287 25.5469 22.3653 25.5469 21.5188V11.0863Z" fill="black"/>
<path d="M4.45312 11.0863L9.46346 14.8612V23.0516H5.96309C5.13947 23.0516 4.45312 22.3882 4.45312 21.5417V11.0863Z" fill="black"/>
<path d="M20.5136 8.5697L15 12.7107L9.48633 8.5697V14.8383L15 18.9793L20.5136 14.8383V8.5697Z" fill="black"/>
<path d="M4.45312 9.11882V11.0863L9.46346 14.8613V8.56974L7.90774 7.40295C7.54169 7.12841 7.08412 6.96826 6.60368 6.96826C5.41401 6.96826 4.45312 7.92915 4.45312 9.11882Z" fill="black"/>
<path d="M25.5469 9.11881V11.0863L20.5137 14.8384V8.56974L22.0923 7.40295C22.4583 7.12841 22.9159 6.96826 23.3963 6.96826C24.586 6.96826 25.5469 7.92915 25.5469 9.11881Z" fill="black"/>
</svg>
