<svg width="30" height="30" viewBox="0 0 30 30" fill="none" xmlns="http://www.w3.org/2000/svg">
<rect width="30" height="30" rx="12" fill="white"/>
<path d="M7.29246 12.1956H10.5674V22.7349H7.29246V12.1956ZM8.93114 6.95679C9.97842 6.95679 10.8286 7.80693 10.8286 8.85667C10.8286 9.90641 9.97842 10.7566 8.93114 10.7566C7.8814 10.7566 7.03126 9.90641 7.03126 8.85667C7.02879 7.80939 7.87893 6.95679 8.93114 6.95679Z" fill="black"/>
<path d="M12.6224 12.1958H15.7643V13.6349H15.8086C16.2448 12.8069 17.3118 11.9321 18.9086 11.9321C22.2254 11.9321 22.8389 14.1154 22.8389 16.9517V22.7351H19.564V17.6121C19.564 16.3874 19.5419 14.8177 17.8613 14.8177C16.1561 14.8177 15.8949 16.1483 15.8949 17.5234V22.7376H12.6224V12.1958Z" fill="black"/>
</svg>
