<svg width="31" height="39" viewBox="0 0 31 39" fill="none" xmlns="http://www.w3.org/2000/svg">
<path d="M29.901 24.0126C29.2377 23.287 28.0586 23.2144 27.3216 23.9401L17.1516 33.3734V2.02577C17.1516 1.00987 16.3409 0.21167 15.3092 0.21167C14.2774 0.21167 13.4668 1.00987 13.4668 2.02577V33.3734L3.29672 23.9401C2.55976 23.287 1.38063 23.287 0.717361 24.0126C0.054096 24.7383 0.0540948 25.8993 0.791056 26.5524L12.2876 37.2918C13.6879 38.9608 16.1935 39.1059 17.8148 37.7272C17.9622 37.5821 18.1096 37.437 18.257 37.2918L29.7536 26.5524C30.5643 25.8267 30.638 24.7383 29.901 24.0126Z" fill="#F3F1EB"/>
</svg>
