<svg width="30" height="30" viewBox="0 0 30 30" fill="none" xmlns="http://www.w3.org/2000/svg">
<rect width="30" height="30" rx="12" fill="white"/>
<path d="M15.0001 6.60599C17.7331 6.60599 18.0571 6.61499 19.1371 6.66599C20.1361 6.71099 20.6791 6.87899 21.0391 7.01999C21.5161 7.20599 21.8581 7.42799 22.2151 7.78499C22.5721 8.14199 22.7941 8.48399 22.9801 8.96099C23.1211 9.32099 23.2861 9.86399 23.3341 10.863C23.3821 11.943 23.3941 12.267 23.3941 15C23.3941 17.733 23.3851 18.057 23.3341 19.137C23.2891 20.136 23.1211 20.679 22.9801 21.039C22.7941 21.516 22.5721 21.858 22.2151 22.215C21.8581 22.572 21.5161 22.794 21.0391 22.98C20.6791 23.121 20.1361 23.286 19.1371 23.334C18.0571 23.382 17.7331 23.394 15.0001 23.394C12.2671 23.394 11.9431 23.385 10.8631 23.334C9.86406 23.289 9.32106 23.121 8.96106 22.98C8.48406 22.794 8.14206 22.572 7.78506 22.215C7.42806 21.858 7.20606 21.516 7.02006 21.039C6.87906 20.679 6.71406 20.136 6.66606 19.137C6.61806 18.057 6.60606 17.733 6.60606 15C6.60606 12.267 6.61506 11.943 6.66606 10.863C6.71106 9.86399 6.87906 9.32099 7.02006 8.96099C7.20606 8.48399 7.42806 8.14199 7.78506 7.78499C8.14206 7.42799 8.48406 7.20599 8.96106 7.01999C9.32106 6.87899 9.86406 6.71399 10.8631 6.66599C11.9431 6.61499 12.2671 6.60599 15.0001 6.60599ZM15.0001 4.76099C12.2191 4.76099 11.8711 4.77299 10.7791 4.82399C9.69006 4.87499 8.94606 5.04599 8.29206 5.30099C7.62006 5.55899 7.04706 5.90999 6.48006 6.47999C5.91006 7.04999 5.56206 7.61999 5.29806 8.29499C5.04606 8.94599 4.87206 9.68999 4.82106 10.782C4.77006 11.874 4.75806 12.222 4.75806 15.003C4.75806 17.784 4.77006 18.132 4.82106 19.224C4.87206 20.313 5.04306 21.057 5.29806 21.711C5.55906 22.38 5.91006 22.953 6.48006 23.52C7.05006 24.09 7.62006 24.438 8.29506 24.702C8.94606 24.954 9.69006 25.128 10.7821 25.179C11.8741 25.23 12.2221 25.242 15.0031 25.242C17.7841 25.242 18.1321 25.23 19.2241 25.179C20.3131 25.128 21.0571 24.957 21.7111 24.702C22.3801 24.441 22.9531 24.09 23.5201 23.52C24.0901 22.95 24.4381 22.38 24.7021 21.705C24.9541 21.054 25.1281 20.31 25.1791 19.218C25.2301 18.126 25.2421 17.778 25.2421 14.997C25.2421 12.216 25.2301 11.868 25.1791 10.776C25.1281 9.68699 24.9571 8.94299 24.7021 8.28899C24.4411 7.61999 24.0901 7.04699 23.5201 6.47999C22.9501 5.90999 22.3801 5.56199 21.7051 5.29799C21.0541 5.04599 20.3101 4.87199 19.2181 4.82099C18.1291 4.77299 17.7811 4.76099 15.0001 4.76099Z" fill="black"/>
<path d="M15 9.74097C12.096 9.74097 9.74097 12.096 9.74097 15C9.74097 17.904 12.096 20.259 15 20.259C17.904 20.259 20.259 17.904 20.259 15C20.259 12.096 17.904 9.74097 15 9.74097ZM15 18.414C13.116 18.414 11.586 16.887 11.586 15C11.586 13.113 13.116 11.586 15 11.586C16.884 11.586 18.414 13.113 18.414 15C18.414 16.887 16.884 18.414 15 18.414Z" fill="black"/>
<path d="M20.466 10.764C21.1453 10.764 21.696 10.2133 21.696 9.53396C21.696 8.85464 21.1453 8.30396 20.466 8.30396C19.7867 8.30396 19.236 8.85464 19.236 9.53396C19.236 10.2133 19.7867 10.764 20.466 10.764Z" fill="black"/>
</svg>
